<?xml version="1.0" encoding="UTF-8"?>
<svg xmlns="http://www.w3.org/2000/svg" viewBox="0 0 334.38 723.92">
  <defs>
    <style>
      .cls-1 {
        fill: #4a87e8;
      }

      .cls-2 {
        fill: #333;
      }
    </style>
  </defs>
  <g id="_5" data-name="5">
    <path class="cls-2" d="M200.49,175.6v-86.12c14.8-8.07,25.57-24.22,25.57-41.71,0-26.91-20.86-47.77-47.77-47.77-26.91,0-47.77,20.86-47.77,47.77,0,13.46,5.38,25.57,13.46,33.64,3.36,3.36,7.4,6.06,11.44,8.75v86.12s45.08-.67,45.08-.67Z"/>
  </g>
  <g id="_4" data-name="4">
    <path class="cls-1" d="M308.14,197.13c12.11,0,22.2-10.09,22.2-22.2,0-10.76-4.71-24.89-30.95-34.99-11.44-4.71-25.57-6.73-36.33-6.73-18.84,0-34.99,8.07-43.73,19.51h-110.34C48.44,152.72,0,201.16,0,261.72c0,29.6,11.44,55.84,32.29,76.7,11.44,11.44,24.89,19.51,39.02,25.57l37.68-37.68c-17.49,0-33.64-6.73-45.75-18.84-12.11-12.11-18.84-28.26-18.84-45.75,0-34.99,28.93-63.92,63.92-63.92l199.82-.67Z"/>
  </g>
  <g id="_3" data-name="3">
    <path class="cls-2" d="M201.16,701.05v-94.19s-44.4,0-44.4,0v94.19c0,6.73,2.69,12.11,6.73,16.15,4.04,4.04,9.42,6.73,16.15,6.73,11.44-.67,20.86-10.09,21.53-22.87Z"/>
  </g>
  <g id="_2" data-name="2">
    <path class="cls-2" d="M224.71,629.06c60.55,0,108.99-48.44,108.99-108.99,0-47.1-29.6-86.12-70.64-101.59l-37.68,37.68c34.99,0,63.92,28.93,63.92,63.92,0,34.99-28.93,63.92-63.92,63.92l-150.03.67c-12.11,0-22.2,10.09-22.2,22.2,0,6.73,2.69,12.11,6.73,16.15,4.04,4.04,9.42,6.73,16.15,6.73l148.69-.67Z"/>
  </g>
  <g id="_1" data-name="1">
    <path class="cls-2" d="M224.71,542.94c12.11,0,22.2-10.09,22.2-22.2,0-12.11-10.09-22.2-22.2-22.2l-115.05-.67c-17.49,0-33.64-6.73-45.75-18.84-12.11-12.11-18.84-28.26-18.84-45.75,0-17.49,6.73-33.64,18.84-45.75,12.11-12.11,28.26-18.84,45.75-18.84h115.72c12.11,0,22.2-10.09,22.2-22.2,0-12.11-10.09-22.2-22.2-22.2h-115.72c-29.6,0-55.84,11.44-76.7,32.29S1.35,404.35.67,433.28c0,29.6,11.44,55.84,32.29,76.7s47.77,31.62,76.7,32.29l115.05.67Z"/>
  </g>
  <g id="_0" data-name="0">
    <path class="cls-1" d="M94.19,450.1c-4.04-4.04-6.73-9.42-6.73-16.15,0-12.11,10.09-22.2,22.2-22.2h115.72c17.49,0,33.64-6.73,45.75-18.84,12.11-12.11,18.84-28.26,18.84-45.75,0-17.49-6.73-33.64-18.84-45.75-12.11-12.11-28.26-18.84-45.75-18.84h-115.72c-12.11,0-22.2-10.09-22.2-22.2,0-12.11,10.09-22.2,22.2-22.2h115.72c29.6,0,55.84,11.44,76.7,32.29,20.86,20.86,31.62,47.77,32.29,76.7,0,29.6-11.44,55.84-32.29,76.7-20.86,20.86-47.77,31.62-76.7,32.29h-115.72c-6.06.67-11.44-2.02-15.47-6.06Z"/>
  </g>
</svg>